<?xml version="1.0" standalone="no"?>
<!DOCTYPE svg PUBLIC "-//W3C//DTD SVG 20010904//EN"
 "http://www.w3.org/TR/2001/REC-SVG-20010904/DTD/svg10.dtd">
<svg version="1.0" xmlns="http://www.w3.org/2000/svg"
 width="494.000000pt" height="468.000000pt" viewBox="0 0 494.000000 468.000000"
 preserveAspectRatio="xMidYMid meet">
<metadata>
Created by potrace 1.16, written by Peter Selinger 2001-2019
</metadata>
<g transform="translate(0.000000,468.000000) scale(0.100000,-0.100000)"
fill="#000000" stroke="none">
<path d="M2295 4655 c-141 -23 -216 -43 -415 -112 -192 -67 -302 -116 -405
-178 -133 -80 -356 -266 -535 -445 -113 -112 -114 -114 -85 -118 18 -2 40 -16
56 -35 l27 -32 103 100 c151 146 310 260 487 349 114 58 397 166 499 191 138
34 193 39 78 7 -173 -49 -590 -230 -572 -249 3 -2 45 16 93 40 175 87 374 148
599 182 184 28 237 14 125 -31 -41 -16 -49 -23 -35 -27 11 -2 0 -6 -25 -7 -25
-1 -58 -6 -75 -11 -24 -6 -19 -7 20 -4 28 2 84 6 125 9 l75 5 -60 -9 c-211
-34 -402 -76 -392 -86 2 -2 44 5 93 16 385 84 789 63 1139 -60 195 -69 450
-212 534 -300 23 -25 44 -38 53 -35 17 7 270 -224 278 -252 5 -16 46 -78 146
-218 19 -27 46 -71 60 -97 13 -27 25 -48 27 -48 7 0 -5 171 -14 207 -8 31 -8
54 1 91 13 49 7 108 -9 98 -5 -3 -12 -21 -15 -40 -8 -42 -38 -73 -53 -54 -15
19 -36 118 -31 153 3 29 6 31 93 50 50 11 100 26 112 33 26 14 95 16 143 2
l35 -9 -37 34 c-22 20 -48 35 -62 35 -45 0 -75 19 -95 58 -36 70 -131 170
-251 264 -43 34 -34 46 20 24 22 -9 40 -12 40 -8 0 13 -70 49 -130 66 -30 9
-80 30 -110 46 -419 226 -667 321 -1009 386 -172 33 -500 42 -646 19z"/>
<path d="M170 3808 c0 -14 62 -123 80 -142 6 -6 13 2 20 18 13 36 26 26 46
-37 23 -72 29 -359 14 -662 -13 -259 -20 -323 -41 -336 -8 -5 -39 -16 -69 -25
-30 -8 -66 -19 -79 -25 -23 -9 -23 -10 -6 -29 17 -19 32 -20 267 -20 239 0
251 1 287 22 39 22 39 22 75 3 35 -19 36 -19 73 1 21 12 81 33 133 49 l95 27
68 142 c57 118 67 144 57 160 -9 15 -9 21 2 27 7 5 16 9 21 9 4 0 16 15 27 33
15 24 20 50 20 109 0 130 -78 455 -117 491 -10 8 -58 30 -107 48 -65 23 -99
42 -127 70 l-39 39 -103 0 c-57 0 -173 6 -258 14 -300 28 -339 30 -339 14z
m643 -102 c54 -22 84 -67 102 -153 28 -130 44 -180 75 -230 17 -28 32 -70 36
-100 6 -49 5 -53 -14 -53 -18 0 -22 -8 -27 -57 -25 -218 -85 -353 -172 -389
-38 -16 -116 -18 -143 -4 -20 11 -41 66 -67 180 -13 60 -17 119 -16 300 1 124
6 283 11 355 9 115 12 131 32 147 27 22 135 25 183 4z"/>
<path d="M736 3678 c-8 -13 -22 -39 -30 -60 -16 -38 -68 -249 -63 -254 7 -8
217 288 211 297 -8 13 -67 39 -88 39 -9 0 -22 -10 -30 -22z"/>
<path d="M4408 3721 c-13 -8 -61 -22 -108 -31 -82 -16 -85 -17 -88 -46 -5 -35
17 -138 26 -129 4 3 14 27 23 53 32 94 83 39 59 -63 -8 -32 -10 -64 -5 -81 5
-16 10 -101 12 -189 l4 -160 -32 30 c-17 17 -82 107 -145 202 -62 94 -118 174
-123 178 -17 10 -13 22 9 28 14 4 20 14 20 35 0 37 -42 73 -147 126 -79 39
-99 43 -128 22 -11 -7 -87 -22 -168 -32 -178 -21 -182 -28 -54 -95 49 -25 93
-52 98 -60 5 -8 9 -153 9 -324 0 -278 -2 -314 -19 -350 -19 -43 -75 -99 -141
-140 -70 -44 -57 -48 145 -43 180 5 185 6 204 29 l19 24 -43 5 c-50 7 -90 38
-111 87 -12 27 -11 61 1 220 8 103 19 226 25 273 5 47 10 88 10 93 1 56 221
-155 346 -333 45 -63 103 -151 129 -195 27 -44 56 -89 67 -101 10 -11 24 -44
30 -72 14 -56 32 -66 63 -36 13 14 21 15 41 5 42 -19 45 -13 14 35 -16 26 -34
70 -41 98 -14 65 -7 550 11 748 l13 137 58 -6 c56 -6 59 -5 70 21 7 14 10 28
8 30 -2 3 -35 9 -72 14 -55 7 -71 6 -89 -7z"/>
<path d="M4442 3571 c-1 -42 -7 -112 -12 -156 -6 -45 -11 -195 -12 -335 -1
-279 7 -339 57 -398 36 -44 34 -66 -8 -59 l-32 5 3 -39 c5 -52 -23 -54 -44 -4
-12 29 -19 35 -44 35 -18 0 -30 -5 -30 -13 0 -7 -7 -22 -15 -33 -15 -19 -15
-19 -30 0 -14 19 -15 17 -15 -21 0 -39 1 -41 38 -48 93 -17 184 -82 221 -159
26 -54 37 -149 22 -203 -18 -66 -84 -155 -151 -204 -33 -24 -60 -48 -60 -54 0
-6 20 -42 45 -79 25 -38 45 -72 45 -77 0 -4 -11 -9 -25 -11 -24 -3 -24 -3 16
-55 37 -48 43 -51 65 -41 13 6 26 9 27 7 2 -2 25 -36 50 -76 47 -73 69 -92
122 -103 29 -6 31 -4 57 58 44 102 136 406 163 537 39 192 49 332 41 595 -6
203 -18 368 -25 335 -4 -17 -20 29 -20 60 -2 37 -43 153 -111 310 -69 157 -79
168 -53 60 7 -31 -28 14 -89 115 -77 127 -75 125 -138 126 l-55 1 -3 -76z"/>
<path d="M1813 3367 l-21 -43 -258 3 -259 4 35 -30 c94 -81 93 -78 85 -124 -4
-23 -9 -140 -12 -259 l-4 -217 -39 -12 c-47 -14 -68 -35 -53 -50 13 -13 279
-27 299 -16 7 4 69 12 136 18 116 9 189 26 161 36 -15 6 -17 53 -4 120 19 95
20 113 11 113 -5 0 -12 -17 -15 -37 -4 -21 -11 -50 -16 -64 -13 -33 -106 -125
-116 -115 -4 4 5 30 20 58 16 28 27 52 25 54 -2 2 -31 -23 -63 -56 -60 -61
-86 -71 -126 -50 -25 14 -49 62 -49 101 0 24 -4 30 -15 25 -12 -4 -15 6 -15
58 0 58 2 64 23 70 80 21 114 -4 137 -101 10 -42 15 -51 18 -34 2 14 -4 53
-13 88 -18 66 -15 96 8 87 23 -8 35 83 21 155 -5 21 -12 31 -25 31 -17 0 -19
-8 -19 -65 0 -82 -16 -101 -93 -110 -62 -8 -88 0 -62 19 8 6 23 38 31 71 9 33
25 70 36 82 14 15 19 31 16 47 -5 26 -5 26 69 26 l74 0 15 -36 c14 -34 16 -35
29 -18 13 17 14 14 15 -36 l1 -55 20 53 c12 30 27 52 35 52 22 0 16 193 -6
198 -10 2 -24 -13 -37 -41z"/>
<path d="M2080 3335 c0 -25 -1 -25 -82 -25 -66 0 -80 -3 -70 -12 7 -7 41 -15
75 -18 88 -7 87 -4 87 -296 0 -237 0 -241 -22 -261 -13 -12 -40 -28 -60 -36
-27 -12 -36 -20 -32 -31 5 -13 28 -16 140 -16 83 0 134 4 134 10 0 6 -6 10
-13 10 -22 0 -65 53 -82 99 -18 52 -23 423 -5 405 6 -6 40 -82 76 -170 36 -87
70 -163 75 -169 7 -7 16 -2 28 14 l18 24 6 -33 c4 -18 7 -62 7 -99 0 -77 8
-113 24 -108 28 9 81 127 142 314 53 164 69 203 84 203 19 0 36 -43 24 -62 -4
-7 -3 -8 4 -4 9 5 12 -8 12 -43 0 -27 -5 -53 -11 -56 -7 -5 -3 -15 10 -29 18
-19 19 -26 10 -66 -10 -43 -7 -107 6 -142 5 -12 -5 -20 -42 -34 -69 -26 -97
-45 -81 -55 12 -8 259 -3 306 7 16 3 22 11 22 30 0 21 -3 23 -19 14 -11 -5
-29 -10 -40 -10 -17 0 -21 6 -21 35 0 19 -5 35 -11 35 -8 0 -10 59 -7 203 6
245 15 282 80 312 23 11 44 26 46 34 4 11 -12 12 -94 5 -121 -9 -121 -9 -217
0 -68 7 -77 6 -71 -7 3 -9 19 -20 35 -26 19 -6 29 -17 29 -30 0 -33 -68 -248
-102 -319 l-30 -67 -45 95 c-40 84 -57 144 -78 271 -11 71 -78 118 -103 73 -8
-15 -16 -13 -70 20 -33 20 -62 36 -66 36 -3 0 -6 -11 -6 -25z"/>
<path d="M3125 3336 c-192 -81 -255 -179 -255 -396 0 -67 4 -84 24 -115 14
-20 27 -49 31 -65 3 -16 12 -33 18 -38 15 -12 133 -46 253 -72 l88 -19 60 32
c81 43 159 117 190 179 21 41 26 67 26 123 0 74 -20 159 -48 204 -85 138 -268
217 -387 167z m159 -57 c48 -37 76 -114 107 -286 10 -57 0 -92 -61 -213 l-30
-60 -81 0 c-44 0 -89 4 -99 10 -27 14 -49 93 -59 209 -15 166 12 284 77 338
36 31 109 31 146 2z"/>
<path d="M3591 2534 c20 -24 79 -51 127 -57 24 -3 46 -7 48 -10 24 -23 57
-768 41 -928 l-11 -107 -45 -6 c-53 -7 -127 -41 -135 -61 -4 -13 11 -15 92
-15 53 0 134 6 178 14 45 8 125 18 178 22 53 4 96 10 96 15 0 15 -31 39 -58
45 -15 3 -38 9 -52 13 l-25 8 -3 206 -2 207 35 0 c34 0 36 -2 78 -87 24 -49
70 -155 102 -238 32 -82 62 -156 68 -162 6 -9 41 -13 109 -13 92 0 101 -2 123
-25 14 -13 25 -29 25 -35 0 -5 18 -10 39 -10 31 0 41 5 46 20 5 17 17 20 88
22 76 3 82 5 79 23 -5 31 -12 34 -100 49 -45 8 -94 23 -110 34 -15 11 -45 50
-66 87 -30 49 -43 64 -55 59 -9 -3 -21 -7 -28 -8 -12 -1 -123 138 -123 155 0
5 14 2 31 -6 17 -9 32 -15 34 -13 2 2 -16 35 -41 73 -24 39 -44 77 -44 86 0 9
22 30 49 47 59 38 112 96 143 154 18 34 23 59 23 118 0 95 -16 139 -69 193
-56 58 -124 83 -295 108 -75 11 -148 24 -163 29 -24 8 -27 6 -30 -18 -3 -23
-8 -27 -40 -30 -22 -2 -56 5 -84 17 -52 24 -145 41 -218 41 -43 0 -47 -2 -35
-16z m544 -124 c39 -6 91 -17 116 -26 45 -14 47 -17 73 -88 28 -77 31 -91 28
-173 -2 -39 -8 -59 -27 -81 -72 -86 -274 -109 -321 -37 -20 31 -10 84 27 151
33 58 36 101 14 184 -24 90 -29 87 90 70z"/>
<path d="M811 2447 c-6 -8 -26 -48 -46 -90 -19 -42 -39 -77 -44 -77 -6 0 -25
7 -43 15 -18 8 -78 26 -133 41 -159 42 -253 25 -336 -63 -75 -78 -107 -198
-80 -295 29 -101 107 -173 315 -288 199 -110 236 -146 236 -230 0 -38 -5 -49
-44 -86 l-45 -42 -58 13 c-74 18 -128 19 -142 1 -14 -17 -57 -10 -93 16 -38
26 -61 68 -101 181 -35 95 -77 180 -97 192 -6 4 -25 11 -42 15 l-31 9 6 -77
c7 -96 24 -147 57 -181 l27 -26 -15 -124 c-15 -118 -12 -152 12 -155 5 0 21
31 36 69 l28 70 43 0 c30 0 43 -4 42 -12 -6 -29 138 -75 235 -75 37 1 86 7
108 15 37 13 45 14 70 1 32 -17 20 -26 129 101 l77 90 -4 105 c-3 82 -9 117
-27 158 -21 45 -27 52 -52 52 -23 0 -44 15 -94 66 -35 36 -69 63 -74 59 -20
-12 -174 76 -234 134 -67 64 -113 133 -100 154 37 60 82 108 109 116 66 19
168 -21 230 -90 12 -13 51 -70 88 -126 36 -57 72 -103 80 -103 15 0 29 51 60
219 18 95 21 213 6 242 -12 22 -42 25 -59 6z"/>
<path d="M1988 2390 c4 -40 -1 -64 -23 -116 -19 -45 -26 -73 -21 -95 4 -19 0
-42 -10 -61 -9 -17 -25 -63 -36 -102 -27 -100 -38 -114 -98 -122 l-49 -6 15
-29 c16 -32 24 -35 42 -17 18 18 16 -66 -3 -101 -15 -29 -39 -41 -88 -41 -42
0 -86 -27 -87 -52 0 -14 33 -9 51 8 15 14 19 13 44 -8 25 -22 30 -23 110 -13
46 5 89 15 95 21 16 16 2 41 -31 53 -16 5 -32 17 -35 25 -9 23 26 118 40 113
7 -3 39 -8 72 -12 66 -8 109 -26 118 -50 3 -9 -8 -49 -24 -91 -17 -41 -30 -81
-30 -89 0 -21 27 -19 67 6 35 22 44 20 56 -16 2 -6 17 -5 41 3 30 11 46 11 85
1 26 -6 60 -9 76 -5 l28 7 -32 33 c-17 17 -31 37 -31 44 0 6 -15 35 -32 64
-18 29 -34 60 -36 68 -2 8 -22 31 -44 50 -40 35 -41 37 -34 81 6 41 4 49 -24
84 -17 21 -33 49 -36 62 -7 25 -1 86 11 115 5 11 -1 20 -21 30 -32 15 -47 42
-64 113 -10 45 -42 95 -60 95 -4 0 -5 -23 -2 -50z"/>
<path d="M3608 2388 l-24 -43 -267 1 c-147 1 -267 -2 -267 -6 0 -5 26 -28 58
-52 l57 -44 -3 -270 c-3 -185 -8 -273 -15 -281 -7 -7 -30 -18 -52 -25 -22 -7
-41 -20 -43 -29 -2 -13 12 -19 75 -28 107 -15 225 -16 250 -3 12 7 68 15 125
18 56 3 119 10 138 15 l35 8 0 78 c1 43 5 99 9 126 6 31 5 47 -2 47 -5 0 -13
-23 -17 -50 -7 -50 -43 -107 -97 -152 -44 -38 -52 -9 -13 52 41 66 28 64 -35
-3 -67 -72 -84 -80 -128 -61 -37 15 -62 60 -62 110 0 31 -2 35 -15 24 -13 -11
-15 -3 -15 58 l0 71 44 6 c24 4 53 4 64 1 20 -7 42 -50 65 -131 13 -44 15 -46
16 -19 1 17 -6 53 -14 80 -8 27 -15 64 -15 82 0 28 3 32 19 27 17 -5 20 1 25
52 7 76 -4 137 -27 141 -14 3 -17 -4 -17 -45 0 -26 -5 -65 -10 -85 -10 -33
-15 -37 -61 -47 -27 -6 -61 -11 -74 -11 -27 0 -42 15 -22 23 8 3 22 34 31 69
10 34 29 75 42 89 21 22 23 30 15 52 l-11 27 78 0 78 0 18 -36 c16 -35 18 -36
31 -18 13 17 14 14 15 -36 l1 -55 23 51 c13 28 31 54 40 57 12 5 16 20 16 69
0 86 -10 138 -26 138 -7 0 -23 -19 -36 -42z"/>
<path d="M2320 2404 c0 -3 5 -14 10 -25 10 -17 7 -19 -30 -19 -62 0 -46 -36
31 -68 38 -17 52 -31 86 -88 68 -115 140 -256 157 -308 17 -48 13 -121 -5
-110 -5 3 -9 -3 -9 -14 0 -33 -38 -71 -78 -78 -46 -8 -82 -30 -82 -49 0 -12
15 -15 73 -15 39 0 88 -4 107 -10 23 -6 36 -6 40 0 10 16 210 26 210 12 0 -7
9 -12 20 -12 11 0 20 6 20 14 0 22 -56 73 -95 86 l-35 12 -2 66 c-3 167 -1
177 76 327 59 116 77 142 106 158 41 22 76 54 68 62 -3 3 -59 8 -124 12 -130
6 -141 2 -159 -56 -7 -22 -5 -23 18 -17 14 3 32 9 40 12 11 4 16 -2 19 -23 3
-30 -71 -204 -91 -211 -7 -2 -9 3 -4 13 5 14 2 16 -14 11 -17 -5 -24 3 -48 56
-36 79 -43 139 -21 172 22 34 21 36 -17 36 -18 0 -38 5 -44 11 -8 8 -13 8 -17
0 -4 -6 -29 -11 -55 -11 -35 0 -59 8 -94 30 -49 31 -57 34 -57 24z"/>
<path d="M1292 2380 c-19 -4 -39 -13 -45 -19 -17 -17 -216 -14 -247 4 -27 15
-70 20 -70 8 1 -19 22 -38 76 -67 l59 -31 6 -150 c4 -82 7 -169 8 -193 0 -26
5 -41 11 -37 6 3 10 47 10 96 0 58 4 88 10 84 12 -7 14 -227 2 -241 -5 -5 -15
-28 -22 -52 -13 -43 -50 -82 -76 -82 -29 0 -94 -33 -94 -48 0 -13 24 -14 212
-9 116 4 269 7 340 7 l129 0 13 33 c27 66 30 81 12 74 -14 -6 -16 5 -16 91 0
96 0 96 -19 77 -11 -11 -32 -56 -46 -100 -33 -101 -63 -135 -121 -135 -56 0
-85 12 -133 55 -81 73 -86 132 -34 393 l26 133 36 19 c42 21 66 46 75 78 7 20
4 22 -31 21 -21 -1 -53 -5 -71 -9z"/>
<path d="M4200 1565 c0 -6 -14 -19 -30 -30 -37 -25 -37 -31 -2 -40 l27 -7 -28
-14 -27 -15 21 -29 c34 -45 20 -60 -52 -60 l-61 0 -76 -70 c-75 -69 -95 -80
-107 -59 -4 5 -19 -16 -35 -48 -33 -69 -60 -103 -175 -224 -76 -80 -88 -89
-98 -75 -11 15 -15 14 -35 -13 -12 -17 -62 -58 -111 -90 -49 -33 -98 -72 -109
-86 -11 -14 -24 -24 -29 -23 -5 2 -35 -25 -67 -59 -62 -67 -96 -79 -117 -44
-12 18 -14 17 -73 -6 -85 -35 -200 -63 -257 -63 -38 0 -51 -4 -59 -20 -6 -11
-30 -30 -53 -42 -38 -20 -60 -22 -224 -26 -371 -8 -709 70 -1013 235 -168 92
-632 415 -760 529 l-55 50 -62 -4 -63 -4 39 -57 c34 -50 40 -67 46 -132 10
-117 15 -145 26 -128 5 8 9 29 9 48 l0 35 30 -29 c16 -15 38 -47 49 -70 19
-41 72 -95 92 -95 6 0 7 -4 4 -10 -3 -5 -21 -10 -40 -10 -19 0 -37 -4 -40 -10
-3 -5 1 -10 9 -10 29 0 92 -69 127 -137 l34 -67 5 46 c5 44 15 67 24 57 19
-21 114 -184 127 -219 18 -45 18 -45 19 -13 0 32 0 33 19 14 11 -11 52 -41 93
-69 117 -79 124 -93 60 -112 -22 -7 -16 -9 28 -10 30 0 68 -7 84 -13 l29 -13
-41 -12 c-23 -7 -42 -16 -42 -21 0 -4 22 -13 50 -19 72 -17 206 -70 221 -88
27 -32 -30 -39 -131 -17 -17 4 -22 2 -15 -4 19 -20 170 -63 219 -63 46 0 52 3
101 55 l53 55 79 0 78 -1 -38 -20 c-22 -11 -37 -22 -35 -25 3 -2 42 2 88 10
l83 15 37 -29 c37 -30 38 -30 71 -12 30 15 68 17 304 17 256 0 273 1 325 23
47 19 74 22 179 22 95 0 142 5 207 22 46 12 84 25 84 28 0 4 -17 11 -37 17
l-38 10 50 2 c56 1 150 18 305 55 58 14 155 32 215 41 61 9 126 20 145 25 l35
8 -38 1 c-21 1 -37 4 -35 9 2 4 35 37 73 73 74 70 122 99 195 119 25 6 65 25
90 40 43 28 107 97 98 106 -3 2 -25 -11 -49 -29 -24 -19 -60 -42 -79 -51 l-35
-17 30 23 c58 43 99 94 128 158 32 71 67 124 122 185 31 35 35 37 29 15 -11
-42 6 -16 107 163 l98 172 -45 3 c-34 2 -44 7 -44 21 0 39 -32 52 -135 53 -62
1 -102 6 -110 14 -7 7 -27 50 -45 96 -32 79 -50 113 -50 93z"/>
<path d="M1187 1228 c1 -75 5 -94 17 -96 12 -3 16 4 16 24 0 15 7 36 16 46 16
17 18 15 45 -27 18 -29 36 -45 49 -45 26 0 26 2 -15 63 l-35 51 37 38 37 38
-28 0 c-21 0 -39 -12 -67 -42 l-38 -43 -1 43 c0 33 -4 42 -17 42 -16 0 -18
-10 -16 -92z"/>
<path d="M1442 1228 c3 -79 6 -93 21 -96 15 -3 17 5 18 65 l1 68 17 -65 c14
-52 21 -65 36 -65 16 0 23 13 35 65 l15 65 3 -68 c2 -58 6 -68 20 -65 9 2 16
7 15 11 -2 4 -3 46 -3 93 l0 85 -27 -3 c-24 -3 -29 -10 -42 -63 l-15 -60 -18
63 c-18 58 -21 62 -49 62 l-30 0 3 -92z"/>
<path d="M1660 1225 l0 -95 70 0 c63 0 70 2 70 20 0 17 -7 20 -50 20 -47 0
-50 2 -50 25 0 23 4 25 45 25 33 0 45 4 45 15 0 11 -12 15 -45 15 -38 0 -45 3
-45 20 0 17 7 20 50 20 38 0 50 4 50 15 0 12 -14 15 -70 15 l-70 0 0 -95z"/>
<path d="M2006 1304 c-34 -33 -8 -78 52 -90 39 -8 48 -20 32 -39 -17 -21 -36
-19 -61 6 -11 11 -27 18 -36 15 -14 -6 -14 -9 0 -29 31 -47 103 -48 133 -2 15
23 15 27 0 50 -9 14 -33 29 -56 35 -45 12 -56 40 -16 40 14 0 28 -4 31 -10 8
-13 45 -13 45 -1 0 21 -34 41 -70 41 -22 0 -45 -7 -54 -16z"/>
<path d="M2992 1232 c-18 -48 -32 -90 -32 -94 0 -19 32 -6 42 17 9 19 19 25
45 25 26 0 36 -6 45 -25 6 -14 19 -25 30 -25 10 0 18 2 18 5 0 3 -16 45 -36
95 -30 74 -40 90 -58 90 -17 0 -27 -15 -54 -88z"/>
<path d="M3232 1228 l3 -93 50 -3 c28 -1 61 4 75 11 30 15 38 52 15 77 -11 12
-13 20 -6 25 18 11 12 54 -8 65 -11 5 -45 10 -76 10 l-56 0 3 -92z"/>
<path d="M3458 1278 c-9 -24 -25 -67 -37 -95 -21 -53 -21 -53 -1 -53 13 0 24
10 30 25 8 20 16 25 45 25 29 0 37 -5 45 -25 6 -16 17 -25 31 -25 13 0 19 5
16 13 -3 6 -20 49 -38 95 -26 67 -36 82 -53 82 -16 0 -26 -11 -38 -42z"/>
<path d="M2623 1300 c-27 -11 -43 -40 -43 -79 0 -57 59 -88 111 -60 52 27 43
119 -13 138 -17 6 -31 11 -32 10 -1 0 -11 -4 -23 -9z"/>
</g>
</svg>
